Coordinates
version=1
nRows=8
nColumns=34
inDegrees=yes

Units are S.I. units (second, meters, Newtons, ...)
If the header above contains a line with 'inDegrees', this indicates whether rotational values are in degrees (yes) or radians (no).

endheader
time	pelvis_tilt	pelvis_list	pelvis_rotation	pelvis_tx	pelvis_ty	pelvis_tz	hip_flexion_r	hip_adduction_r	hip_rotation_r	knee_angle_r	ankle_angle_r	subtalar_angle_r	mtp_angle_r	hip_flexion_l	hip_adduction_l	hip_rotation_l	knee_angle_l	ankle_angle_l	subtalar_angle_l	mtp_angle_l	lumbar_extension	lumbar_bending	lumbar_rotation	arm_flex_r	arm_add_r	arm_rot_r	elbow_flex_r	pro_sup_r	arm_flex_l	arm_add_l	arm_rot_l	elbow_flex_l	pro_sup_l
      1.63333330	    -75.18964346	     55.68055763	     21.32178255	      1.14799853	      0.86914695	     -0.44457966	    119.99999986	    -25.81734905	     20.39669845	     72.63201664	      2.03989225	    -22.44789056	      0.00000000	    101.43742043	     30.00000025	    -16.77922769	      0.00000000	    -21.76008821	    -35.00000000	      0.00000000	     90.00000018	    -37.82711663	     25.87036952	     -9.77507349	      9.87169032	      2.49698192	     11.41309262	    119.74817918	    -14.43262613	     -8.06063333	      6.34470721	     17.63012902	    104.30554749
      1.65000000	    -75.47164814	     56.05331008	     21.07136665	      1.15352450	      0.86454300	     -0.44204643	    119.99999986	    -25.80972826	     20.53495670	     72.58307421	      1.52698500	    -22.25294350	      0.00000000	    101.15560366	     30.00000025	    -16.94837131	      0.00000000	    -22.20495579	    -35.00000000	      0.00000000	     90.00000018	    -37.16829967	     26.06822121	     -9.86444648	      9.64457591	      2.52212150	     11.36025023	    119.74817918	    -14.58542811	     -7.83444504	      6.42168113	     17.66872345	    104.37348583
      1.66666670	    -75.82692703	     56.46924205	     20.97683054	      1.15759109	      0.86670168	     -0.44081145	    119.99999986	    -25.77871456	     20.83260090	     72.45292337	      0.81467541	    -22.21037737	      0.00000000	    100.97095754	     30.00000025	    -17.14434483	      0.00000000	    -23.58767086	    -35.00000000	      0.00000000	     90.00000018	    -36.74887140	     26.54070657	     -9.92695292	      9.53007629	      2.60589207	     11.28986743	    119.74817918	    -14.55657473	     -7.73159385	      6.53341354	     17.77738478	    104.48900157
      1.68333330	    -76.43462827	     56.66127781	     21.22947650	      1.16129263	      0.86409950	     -0.43652747	    119.99999986	    -25.65719215	     21.19104668	     72.43259591	      0.73627595	    -22.16107359	      0.00000000	    100.92853200	     30.00000025	    -17.01356925	      0.00000000	    -23.83540124	    -35.00000000	      0.00000000	     90.00000018	    -36.64496778	     26.60498181	    -10.04141880	      9.54591419	      2.63203976	     11.25124337	    119.74817918	    -14.56471694	     -7.80840569	      6.54785146	     17.80099058	    104.51108831
      1.70000000	    -76.84902070	     56.71916897	     21.36099815	      1.16776324	      0.86502572	     -0.43380377	    119.99999986	    -25.47447988	     21.44567099	     73.02523416	      0.17054122	    -22.69778552	      0.00000000	    100.78665712	     30.00000025	    -16.86133348	      0.00000000	    -24.63719019	    -35.00000000	      0.00000000	     90.00000018	    -36.69347417	     26.97246969	    -10.18442271	      9.62305068	      2.81897474	     11.36746146	    119.74817918	    -14.41977860	     -8.00934819	      6.71373020	     18.23270799	    104.67288833
      1.71666670	    -77.42335342	     56.59722861	     21.57572605	      1.17523483	      0.86426852	     -0.43220431	    119.99999986	    -25.09033949	     21.88416017	     73.52061981	     -2.67877582	    -25.77506178	      0.00000000	    100.75021096	     30.00000025	    -16.61825392	      0.00000000	    -24.87342339	    -35.00000000	      0.00000000	     90.00000018	    -36.54263465	     26.96943966	    -10.50216502	      9.54265175	      3.41143958	     11.85533621	    119.74817918	    -14.61396939	     -8.19328115	      7.40811495	     18.83686085	    105.28880147
      1.73333330	    -77.62517233	     56.35203893	     21.42997736	      1.18168714	      0.86149864	     -0.43070451	    119.99999986	    -24.77168862	     22.03893759	     74.30014784	     -5.36515371	    -28.38189080	      0.00000000	    100.59736948	     30.00000025	    -16.38372097	      0.00000000	    -24.70794346	    -35.00000000	      0.00000000	     90.00000018	    -36.19203817	     26.60193895	    -10.54046946	      9.42806545	      3.92206124	     11.78574757	    119.74817918	    -14.74228387	     -8.17514897	      7.89519142	     18.52877052	    105.85790617
      1.75000000	    -77.59773967	     56.51572547	     21.17959231	      1.18697771	      0.85946855	     -0.42787299	    119.99999986	    -24.30425490	     22.61584453	     74.96413868	    -10.02083978	    -32.78564124	      0.00000000	    100.29666709	     30.00000025	    -16.65040639	      0.00000000	    -25.35199850	    -35.00000000	      0.00000000	     90.00000018	    -36.14160569	     26.84924251	    -10.54397543	      9.40729269	      4.57350669	     11.88740786	    119.74817918	    -14.71903914	     -8.43046416	      8.31690918	     18.53893886	    106.35366910
